<svg width="75" height="77" viewBox="0 0 75 77" fill="none" xmlns="http://www.w3.org/2000/svg">
<path fill-rule="evenodd" clip-rule="evenodd" d="M69.0684 18.8975C68.6346 18.8975 68.2826 18.5455 68.2826 18.1117V8.08562C68.2826 7.25077 67.6037 6.57149 66.7689 6.57149H57.1038C56.0694 6.57149 56.0698 5 57.1038 5H66.7689C68.4704 5 69.8545 6.38409 69.8545 8.08562V18.1117C69.8537 18.5463 69.5021 18.8975 69.068 18.8975H69.0684Z" fill="#D7D7D7"/>
<path fill-rule="evenodd" clip-rule="evenodd" d="M5.78575 18.8975C5.35201 18.8975 5 18.5455 5 18.1117V8.08562C5 6.38409 6.38409 5 8.08562 5H17.7507C18.7851 5 18.7851 6.57149 17.7507 6.57149H8.08523C7.25038 6.57149 6.5711 7.25077 6.5711 8.08562V18.1117C6.57149 18.5463 6.21987 18.8975 5.78575 18.8975Z" fill="#D7D7D7"/>
<path fill-rule="evenodd" clip-rule="evenodd" d="M66.7684 72.0489H57.1033C56.0689 72.0489 56.0693 70.4774 57.1033 70.4774H66.7684C67.6032 70.4774 68.2821 69.7986 68.2821 68.9637V58.9368C68.2821 57.9024 69.8536 57.9028 69.8536 58.9368V68.9637C69.854 70.6648 68.4699 72.0489 66.7684 72.0489Z" fill="#D7D7D7"/>
<path fill-rule="evenodd" clip-rule="evenodd" d="M17.7507 72.0484H8.08562C6.38409 72.0484 5 70.6643 5 68.9627V58.9358C5 57.9014 6.57149 57.9018 6.57149 58.9358V68.9627C6.57149 69.7976 7.25077 70.4765 8.08562 70.4765H17.7507C18.7851 70.4765 18.7851 72.0484 17.7507 72.0484Z" fill="#D7D7D7"/>
<path fill-rule="evenodd" clip-rule="evenodd" d="M69.0837 35.5715H5.78559C4.75116 35.5715 4.75116 34 5.78559 34H69.0837C70.1177 34 70.1181 35.5715 69.0837 35.5715Z" fill="#D7D7D7"/>
<path d="M60.6301 18.7432H14.6664C12.0308 18.7506 9.89612 20.8853 9.88867 23.5209V53.9522C9.89612 56.5878 12.0308 58.7225 14.6664 58.7299H60.6301C63.2657 58.7225 65.4004 56.5878 65.4078 53.9522V23.5209C65.4004 20.8853 63.2657 18.7506 60.6301 18.7432ZM63.9758 53.9522C63.9699 55.7975 62.4754 57.292 60.6301 57.298H14.6664C12.8211 57.292 11.3266 55.7975 11.3206 53.9522V23.5209C11.3266 21.6756 12.8211 20.1811 14.6664 20.1751H60.6301C62.4754 20.1811 63.9699 21.6756 63.9758 23.5209V53.9522Z" fill="#D7D7D7"/>
<path d="M56.0586 29.1207L56.0586 48.4216C56.0809 48.7846 56.3704 49.074 56.7333 49.0963C57.1305 49.1207 57.4722 48.8186 57.4966 48.4216L57.4966 29.1207C57.4744 28.7576 57.1848 28.4682 56.8219 28.4459C56.4248 28.4215 56.0831 28.7235 56.0586 29.1207Z" fill="#D7D7D7"/>
<path d="M35.8242 28.6763L35.8242 47.9772C35.8465 48.3403 36.136 48.6296 36.4989 48.6519C36.8961 48.6764 37.2378 48.3742 37.2623 47.9772L37.2623 28.6763C37.24 28.3133 36.9505 28.0239 36.5876 28.0016C36.1904 27.9771 35.8487 28.2792 35.8242 28.6763Z" fill="#D7D7D7"/>
<path d="M40.4111 29.1205L40.4111 48.4214C40.4334 48.7845 40.7229 49.0738 41.086 49.0963C41.4831 49.1207 41.8249 48.8186 41.8492 48.4214L41.8492 29.1205C41.8269 28.7575 41.5374 28.4681 41.1743 28.4457C40.7773 28.4213 40.4356 28.7234 40.4111 29.1205Z" fill="#D7D7D7"/>
<path d="M48.2344 29.1205L48.2344 48.4214C48.2567 48.7845 48.5462 49.0738 48.9092 49.0963C49.3064 49.1207 49.6481 48.8186 49.6724 48.4214L49.6724 29.1205C49.6501 28.7575 49.3606 28.4681 48.9976 28.4457C48.6005 28.4213 48.2588 28.7234 48.2344 29.1205Z" fill="#D7D7D7"/>
<path d="M28 29.1205L28 48.4214C28.0223 48.7845 28.3118 49.0738 28.6749 49.0963C29.072 49.1207 29.4137 48.8186 29.4381 48.4214L29.4381 29.1205C29.4158 28.7575 29.1262 28.4681 28.7632 28.4457C28.3662 28.4213 28.0245 28.7234 28 29.1205Z" fill="#D7D7D7"/>
<path d="M18 29.1205L18 48.4214C18.0223 48.7845 18.3118 49.0738 18.6749 49.0963C19.072 49.1207 19.4137 48.8186 19.4381 48.4214L19.4381 29.1205C19.4158 28.7575 19.1262 28.4681 18.7632 28.4457C18.3662 28.4213 18.0245 28.7234 18 29.1205Z" fill="#D7D7D7"/>
<path d="M22 29.1205L22 48.4214C22.0223 48.7845 22.3118 49.0738 22.6749 49.0963C23.072 49.1207 23.4137 48.8186 23.4381 48.4214L23.4381 29.1205C23.4158 28.7575 23.1262 28.4681 22.7632 28.4457C22.3662 28.4213 22.0245 28.7234 22 29.1205Z" fill="#D7D7D7"/>
<path d="M52.1475 29.1207L52.1475 48.4216C52.1698 48.7846 52.4593 49.074 52.8222 49.0963C53.2193 49.1207 53.561 48.8186 53.5855 48.4216L53.5855 29.1207C53.5632 28.7576 53.2737 28.4682 52.9108 28.4459C52.5136 28.4215 52.1719 28.7235 52.1475 29.1207Z" fill="#D7D7D7"/>
<path d="M31.9131 29.1207L31.9131 48.4216C31.9354 48.7846 32.2249 49.074 32.5878 49.0963C32.985 49.1207 33.3267 48.8186 33.3511 48.4216L33.3511 29.1207C33.3288 28.7576 33.0393 28.4682 32.6764 28.4459C32.2793 28.4215 31.9376 28.7235 31.9131 29.1207Z" fill="#D7D7D7"/>
<path d="M26.16 10.6431L27.3787 13.8852L28.601 10.6201C28.6646 10.4485 28.7124 10.3298 28.7442 10.2639C28.776 10.1957 28.8286 10.1352 28.902 10.0825C28.9754 10.0275 29.0758 10 29.203 10C29.296 10 29.3817 10.0209 29.46 10.0627C29.5407 10.1044 29.6031 10.1605 29.6472 10.2309C29.6937 10.299 29.7169 10.3683 29.7169 10.4387C29.7169 10.487 29.7096 10.5398 29.6949 10.597C29.6802 10.6519 29.6619 10.7069 29.6398 10.7619C29.6178 10.8146 29.5958 10.8696 29.5738 10.9268L28.2706 14.0864C28.2242 14.2073 28.1777 14.3228 28.1312 14.4327C28.0847 14.5405 28.0308 14.6361 27.9696 14.7197C27.9085 14.801 27.8265 14.8681 27.7237 14.9208C27.6234 14.9736 27.4998 15 27.353 15C27.2061 15 27.0813 14.9736 26.9785 14.9208C26.8782 14.8703 26.7962 14.8032 26.7326 14.7197C26.6714 14.6339 26.6176 14.5372 26.5711 14.4294C26.5246 14.3217 26.4781 14.2073 26.4316 14.0864L25.1505 10.9532C25.1285 10.896 25.1052 10.8399 25.0808 10.785C25.0587 10.73 25.0392 10.6706 25.022 10.6069C25.0073 10.5431 25 10.4892 25 10.4453C25 10.3331 25.0502 10.2309 25.1505 10.1385C25.2508 10.0462 25.3769 10 25.5286 10C25.7146 10 25.8455 10.0517 25.9214 10.155C25.9997 10.2562 26.0792 10.4189 26.16 10.6431Z" fill="#44B05E"/>
<path d="M34.0851 10.8377H31.6294V12.0251H33.8906C34.057 12.0251 34.1806 12.0591 34.2613 12.1273C34.3445 12.1933 34.3861 12.2812 34.3861 12.3912C34.3861 12.5011 34.3458 12.5912 34.265 12.6616C34.1842 12.7298 34.0594 12.7639 33.8906 12.7639H31.6294V14.1392H34.1696C34.3409 14.1392 34.4693 14.1755 34.555 14.248C34.6431 14.3184 34.6871 14.4129 34.6871 14.5317C34.6871 14.646 34.6431 14.7394 34.555 14.812C34.4693 14.8824 34.3409 14.9175 34.1696 14.9175H31.2073C30.9699 14.9175 30.7986 14.8703 30.6934 14.7757C30.5906 14.6812 30.5392 14.5284 30.5392 14.3173V10.6827C30.5392 10.542 30.5624 10.4277 30.6089 10.3397C30.6554 10.2496 30.7276 10.1847 30.8255 10.1451C30.9258 10.1033 31.0531 10.0825 31.2073 10.0825H34.0851C34.2589 10.0825 34.3874 10.1176 34.4706 10.188C34.5562 10.2562 34.599 10.3463 34.599 10.4584C34.599 10.5728 34.5562 10.6651 34.4706 10.7355C34.3874 10.8036 34.2589 10.8377 34.0851 10.8377Z" fill="#44B05E"/>
<path d="M37.0181 12.8496H36.6363V14.403C36.6363 14.6075 36.5861 14.7581 36.4858 14.8549C36.3855 14.9516 36.2546 15 36.093 15C35.9193 15 35.7847 14.9494 35.6893 14.8483C35.5938 14.7471 35.5461 14.5987 35.5461 14.403V10.6827C35.5461 10.4716 35.5987 10.3188 35.7039 10.2243C35.8092 10.1297 35.9792 10.0825 36.2142 10.0825H37.9872C38.2319 10.0825 38.4411 10.0923 38.6149 10.1121C38.7886 10.1297 38.9452 10.1671 39.0847 10.2243C39.2536 10.288 39.4028 10.3793 39.5325 10.498C39.6622 10.6168 39.7601 10.7553 39.8262 10.9136C39.8947 11.0697 39.929 11.2357 39.929 11.4116C39.929 11.7722 39.8152 12.0602 39.5876 12.2757C39.3625 12.4912 39.0199 12.644 38.5598 12.7342C38.7531 12.8265 38.9379 12.9628 39.1141 13.1431C39.2903 13.3234 39.4469 13.5158 39.5839 13.7203C39.7234 13.9226 39.8311 14.1062 39.907 14.2711C39.9853 14.4338 40.0244 14.546 40.0244 14.6075C40.0244 14.6713 40.0012 14.735 39.9547 14.7988C39.9106 14.8604 39.8495 14.9088 39.7711 14.9439C39.6928 14.9813 39.6023 15 39.4995 15C39.3771 15 39.2744 14.9736 39.1912 14.9208C39.108 14.8703 39.0358 14.8054 38.9746 14.7263C38.9159 14.6471 38.8351 14.5306 38.7323 14.3766L38.2955 13.7236C38.1389 13.4839 37.9982 13.3015 37.8734 13.1761C37.751 13.0508 37.6262 12.965 37.4989 12.9189C37.3717 12.8727 37.2114 12.8496 37.0181 12.8496ZM37.6421 10.8179H36.6363V12.1471H37.6127C37.8746 12.1471 38.0948 12.1273 38.2735 12.0877C38.4521 12.046 38.5879 11.9767 38.6809 11.8799C38.7764 11.781 38.8241 11.6458 38.8241 11.4743C38.8241 11.3401 38.7862 11.2225 38.7103 11.1214C38.6344 11.018 38.5292 10.9411 38.3946 10.8905C38.2674 10.8421 38.0165 10.8179 37.6421 10.8179Z" fill="#44B05E"/>
<path d="M45.0534 13.4664C45.0534 13.7588 44.9689 14.0215 44.8001 14.2546C44.6337 14.4877 44.389 14.6702 44.0659 14.8021C43.7429 14.934 43.3599 15 42.917 15C42.3859 15 41.9479 14.9099 41.6029 14.7296C41.3581 14.5998 41.1587 14.4272 41.0045 14.2117C40.8528 13.9941 40.7769 13.783 40.7769 13.5785C40.7769 13.4598 40.8222 13.3586 40.9127 13.2751C41.0057 13.1893 41.1232 13.1464 41.2651 13.1464C41.3802 13.1464 41.4768 13.1794 41.5551 13.2454C41.6359 13.3113 41.7044 13.4092 41.7607 13.5389C41.8292 13.6928 41.9026 13.8215 41.9809 13.9248C42.0617 14.0281 42.1743 14.1139 42.3187 14.1821C42.463 14.248 42.6527 14.281 42.8876 14.281C43.2106 14.281 43.4725 14.2139 43.6732 14.0798C43.8763 13.9435 43.9778 13.7742 43.9778 13.5719C43.9778 13.4114 43.9228 13.2817 43.8127 13.1827C43.705 13.0816 43.5643 13.0046 43.3905 12.9518C43.2192 12.8991 42.9892 12.843 42.7004 12.7836C42.3138 12.7023 41.9895 12.6077 41.7277 12.5C41.4683 12.3901 41.2615 12.2416 41.1073 12.0547C40.9556 11.8657 40.8797 11.6315 40.8797 11.3522C40.8797 11.0862 40.9605 10.8498 41.122 10.6431C41.2835 10.4365 41.5172 10.2781 41.8231 10.1682C42.129 10.0561 42.4887 10 42.9023 10C43.2327 10 43.5178 10.0374 43.7576 10.1121C43.9999 10.1847 44.2005 10.2825 44.3596 10.4057C44.5187 10.5266 44.6349 10.6541 44.7083 10.7883C44.7817 10.9224 44.8184 11.0532 44.8184 11.1807C44.8184 11.2973 44.7719 11.4028 44.679 11.4974C44.5884 11.5897 44.4746 11.6359 44.3376 11.6359C44.2128 11.6359 44.1173 11.6084 44.0513 11.5534C43.9876 11.4963 43.9179 11.4039 43.842 11.2764C43.7441 11.0939 43.6267 10.9521 43.4896 10.8509C43.3526 10.7476 43.1323 10.6959 42.8289 10.6959C42.5475 10.6959 42.3199 10.752 42.1461 10.8641C41.9748 10.9741 41.8892 11.1071 41.8892 11.2632C41.8892 11.3599 41.9185 11.4435 41.9773 11.5139C42.036 11.5842 42.1168 11.6447 42.2195 11.6953C42.3223 11.7458 42.4263 11.7854 42.5316 11.814C42.6368 11.8426 42.8105 11.8843 43.0528 11.9393C43.3563 12.0031 43.6303 12.0734 43.8751 12.1504C44.1222 12.2274 44.3315 12.3208 44.5028 12.4307C44.6765 12.5407 44.8111 12.6803 44.9065 12.8496C45.0044 13.0167 45.0534 13.2223 45.0534 13.4664Z" fill="#44B05E"/>
<path d="M48.346 10C48.904 10 49.3824 10.1022 49.7813 10.3067C50.1826 10.509 50.4861 10.7982 50.6917 11.1741C50.8972 11.5479 51 11.9877 51 12.4934C51 12.8672 50.9437 13.2069 50.8311 13.5125C50.7186 13.8182 50.5497 14.0831 50.3246 14.3074C50.0994 14.5317 49.8229 14.7032 49.495 14.8219C49.1671 14.9406 48.7914 15 48.3681 15C47.9472 15 47.5703 14.9395 47.2375 14.8186C46.9047 14.6955 46.6269 14.5229 46.4042 14.3008C46.1815 14.0787 46.0127 13.8116 45.8976 13.4993C45.7851 13.1871 45.7288 12.8496 45.7288 12.4868C45.7288 12.1152 45.7875 11.7744 45.905 11.4644C46.0249 11.1544 46.1974 10.8905 46.4226 10.6728C46.6477 10.4551 46.9218 10.2891 47.2448 10.1748C47.5678 10.0583 47.9349 10 48.346 10ZM49.8951 12.4868C49.8951 12.1328 49.8315 11.8261 49.7042 11.5666C49.577 11.3072 49.3947 11.1115 49.1573 10.9796C48.9224 10.8454 48.6519 10.7784 48.346 10.7784C48.1282 10.7784 47.9264 10.8157 47.7404 10.8905C47.5568 10.9631 47.3978 11.0697 47.2632 11.2104C47.131 11.3511 47.0258 11.5314 46.9475 11.7513C46.8716 11.969 46.8337 12.2142 46.8337 12.4868C46.8337 12.7617 46.8716 13.0101 46.9475 13.2322C47.0258 13.4543 47.1347 13.639 47.2742 13.7863C47.4161 13.9314 47.5776 14.0402 47.7587 14.1128C47.9423 14.1854 48.1429 14.2216 48.3607 14.2216C48.6397 14.2216 48.8954 14.159 49.1279 14.0336C49.3628 13.9083 49.5488 13.7148 49.6859 13.4532C49.8254 13.1915 49.8951 12.8694 49.8951 12.4868Z" fill="#44B05E"/>
<path d="M67.5 74.75C70.9518 74.75 73.75 71.9518 73.75 68.5C73.75 65.0482 70.9518 62.25 67.5 62.25C64.0482 62.25 61.25 65.0482 61.25 68.5C61.25 71.9518 64.0482 74.75 67.5 74.75Z" fill="#44B05E"/>
<path d="M70 68.0312H67.9688V66C67.9688 65.7438 67.7562 65.5312 67.5 65.5312C67.2438 65.5312 67.0312 65.7438 67.0312 66V68.0312H65C64.7438 68.0312 64.5312 68.2438 64.5312 68.5C64.5312 68.7562 64.7438 68.9688 65 68.9688H67.0312V71C67.0312 71.2562 67.2438 71.4688 67.5 71.4688C67.7562 71.4688 67.9688 71.2562 67.9688 71V68.9688H70C70.2562 68.9688 70.4688 68.7562 70.4688 68.5C70.4688 68.2438 70.2562 68.0312 70 68.0312Z" fill="white"/>
</svg>
