<svg width="75" height="77" viewBox="0 0 75 77" fill="none" xmlns="http://www.w3.org/2000/svg">
<path fill-rule="evenodd" clip-rule="evenodd" d="M69.0684 18.8975C68.6346 18.8975 68.2826 18.5455 68.2826 18.1117V8.08562C68.2826 7.25077 67.6037 6.57149 66.7689 6.57149H57.1038C56.0694 6.57149 56.0698 5 57.1038 5H66.7689C68.4704 5 69.8545 6.38409 69.8545 8.08562V18.1117C69.8537 18.5463 69.5021 18.8975 69.068 18.8975H69.0684Z" fill="#D7D7D7"/>
<path fill-rule="evenodd" clip-rule="evenodd" d="M5.78575 18.8975C5.35201 18.8975 5 18.5455 5 18.1117V8.08562C5 6.38409 6.38409 5 8.08562 5H17.7507C18.7851 5 18.7851 6.57149 17.7507 6.57149H8.08523C7.25038 6.57149 6.5711 7.25077 6.5711 8.08562V18.1117C6.57149 18.5463 6.21987 18.8975 5.78575 18.8975Z" fill="#D7D7D7"/>
<path fill-rule="evenodd" clip-rule="evenodd" d="M66.7684 72.0489H57.1033C56.0689 72.0489 56.0693 70.4774 57.1033 70.4774H66.7684C67.6032 70.4774 68.2821 69.7986 68.2821 68.9637V58.9368C68.2821 57.9024 69.8536 57.9028 69.8536 58.9368V68.9637C69.854 70.6648 68.4699 72.0489 66.7684 72.0489Z" fill="#D7D7D7"/>
<path fill-rule="evenodd" clip-rule="evenodd" d="M17.7507 72.0484H8.08562C6.38409 72.0484 5 70.6643 5 68.9627V58.9358C5 57.9014 6.57149 57.9018 6.57149 58.9358V68.9627C6.57149 69.7976 7.25077 70.4765 8.08562 70.4765H17.7507C18.7851 70.4765 18.7851 72.0484 17.7507 72.0484Z" fill="#D7D7D7"/>
<path fill-rule="evenodd" clip-rule="evenodd" d="M69.0837 35.5715H5.78559C4.75116 35.5715 4.75116 34 5.78559 34H69.0837C70.1177 34 70.1181 35.5715 69.0837 35.5715Z" fill="#D7D7D7"/>
<path d="M58.3779 45.813H39.1719C38.8103 45.8352 38.5222 46.1235 38.5 46.4848C38.4756 46.8803 38.7765 47.2206 39.1719 47.245H58.3779C58.7394 47.2228 59.0276 46.9345 59.0497 46.5731C59.0741 46.1776 58.7734 45.8374 58.3779 45.813Z" fill="#D7D7D7"/>
<path d="M60.6301 18.7432H14.6664C12.0308 18.7506 9.89612 20.8853 9.88867 23.5209V53.9522C9.89612 56.5878 12.0308 58.7225 14.6664 58.7299H60.6301C63.2657 58.7225 65.4004 56.5878 65.4078 53.9522V23.5209C65.4004 20.8853 63.2657 18.7506 60.6301 18.7432ZM63.9758 53.9522C63.9699 55.7975 62.4754 57.292 60.6301 57.298H14.6664C12.8211 57.292 11.3266 55.7975 11.3206 53.9522V23.5209C11.3266 21.6756 12.8211 20.1811 14.6664 20.1751H60.6301C62.4754 20.1811 63.9699 21.6756 63.9758 23.5209V53.9522Z" fill="#D7D7D7"/>
<g clip-path="url(#clip0_2832_903)">
<path d="M34.8854 36.3028C34.7876 36.1835 34.6416 36.1138 34.4885 36.1138H32.542C32.0617 34.8469 31.4359 33.6055 30.7246 33.1369C28.2639 31.5182 21.7373 31.5182 19.2766 33.1369C18.5648 33.606 17.9416 34.8489 17.4587 36.1138H15.5122C15.3575 36.1138 15.2121 36.1835 15.1153 36.3028C15.018 36.4216 14.9791 36.5788 15.0108 36.7299L15.2992 38.127C15.3483 38.3651 15.5583 38.5351 15.8005 38.5351H16.3771C15.8205 39.1773 15.5506 39.9859 15.547 40.7951C15.5434 41.7947 15.9229 42.6981 16.6168 43.3372C16.6245 43.3438 16.6321 43.3484 16.6393 43.3551V45.3098C16.6393 45.7333 16.9834 46.078 17.4075 46.078H19.2029C19.6269 46.078 19.971 45.7333 19.971 45.3098V44.5242H30.0291V45.3098C30.0291 45.7333 30.3733 46.078 30.7973 46.078H32.5927C33.0157 46.078 33.3609 45.7333 33.3609 45.3098V43.3935C34.0973 42.7191 34.4491 41.7911 34.4537 40.8647C34.4568 40.0279 34.1746 39.1896 33.5852 38.5341H34.2002C34.4434 38.5341 34.6534 38.3641 34.7015 38.1254L34.9904 36.7289C35.0201 36.5788 34.9827 36.4226 34.8854 36.3028ZM20.12 34.4198C22.0814 33.1287 27.9188 33.1287 29.8791 34.4198C30.2601 34.6697 30.7502 35.6801 31.1993 36.9173H18.8009C19.249 35.6806 19.739 34.6707 20.12 34.4198ZM17.8228 40.9876C17.8228 40.1529 18.4998 39.4769 19.334 39.4769C20.1692 39.4769 20.8452 40.1529 20.8452 40.9876C20.8452 41.8223 20.1692 42.4988 19.334 42.4988C18.4998 42.4988 17.8228 41.8223 17.8228 40.9876ZM30.6862 42.4988C29.852 42.4988 29.175 41.8223 29.175 40.9876C29.175 40.1529 29.852 39.4769 30.6862 39.4769C31.5214 39.4769 32.1974 40.1529 32.1974 40.9876C32.1974 41.8223 31.5204 42.4988 30.6862 42.4988Z" fill="#D7D7D7"/>
</g>
<path d="M29.3174 10.8377H27.3953V12.0745H29.002C29.151 12.0745 29.2616 12.1086 29.3339 12.1768C29.4083 12.2427 29.4456 12.3318 29.4456 12.4439C29.4456 12.5561 29.4083 12.6451 29.3339 12.7111C29.2594 12.777 29.1488 12.81 29.002 12.81H27.3953V14.403C27.3953 14.6053 27.3493 14.7559 27.2573 14.8549C27.1675 14.9516 27.0514 15 26.909 15C26.7644 15 26.6461 14.9505 26.5541 14.8516C26.4643 14.7526 26.4194 14.6031 26.4194 14.403V10.6827C26.4194 10.542 26.4402 10.4277 26.4819 10.3397C26.5235 10.2496 26.5881 10.1847 26.6757 10.1451C26.7655 10.1033 26.8794 10.0825 27.0174 10.0825H29.3174C29.473 10.0825 29.588 10.1176 29.6624 10.188C29.7391 10.2562 29.7774 10.3463 29.7774 10.4584C29.7774 10.5728 29.7391 10.6651 29.6624 10.7355C29.588 10.8036 29.473 10.8377 29.3174 10.8377Z" fill="#44B05E"/>
<path d="M31.8179 12.8496H31.4761V14.403C31.4761 14.6075 31.4312 14.7581 31.3414 14.8549C31.2516 14.9516 31.1344 15 30.9899 15C30.8343 15 30.7139 14.9494 30.6284 14.8483C30.543 14.7471 30.5003 14.5987 30.5003 14.403V10.6827C30.5003 10.4716 30.5474 10.3188 30.6416 10.2243C30.7358 10.1297 30.888 10.0825 31.0983 10.0825H32.6853C32.9043 10.0825 33.0916 10.0923 33.2471 10.1121C33.4027 10.1297 33.5429 10.1671 33.6677 10.2243C33.8189 10.288 33.9525 10.3793 34.0686 10.498C34.1847 10.6168 34.2723 10.7553 34.3314 10.9136C34.3928 11.0697 34.4234 11.2357 34.4234 11.4116C34.4234 11.7722 34.3216 12.0602 34.1179 12.2757C33.9163 12.4912 33.6097 12.644 33.1979 12.7342C33.3709 12.8265 33.5363 12.9628 33.694 13.1431C33.8517 13.3234 33.9919 13.5158 34.1146 13.7203C34.2394 13.9226 34.3358 14.1062 34.4037 14.2711C34.4738 14.4338 34.5089 14.546 34.5089 14.6075C34.5089 14.6713 34.4881 14.735 34.4464 14.7988C34.407 14.8604 34.3522 14.9088 34.2821 14.9439C34.2121 14.9813 34.131 15 34.039 15C33.9295 15 33.8375 14.9736 33.763 14.9208C33.6885 14.8703 33.6239 14.8054 33.5691 14.7263C33.5166 14.6471 33.4443 14.5306 33.3523 14.3766L32.9613 13.7236C32.8211 13.4839 32.6951 13.3015 32.5834 13.1761C32.4739 13.0508 32.3622 12.965 32.2483 12.9189C32.1344 12.8727 31.9909 12.8496 31.8179 12.8496ZM32.3764 10.8179H31.4761V12.1471H32.3501C32.5845 12.1471 32.7817 12.1273 32.9416 12.0877C33.1015 12.046 33.2231 11.9767 33.3063 11.8799C33.3917 11.781 33.4344 11.6458 33.4344 11.4743C33.4344 11.3401 33.4005 11.2225 33.3326 11.1214C33.2647 11.018 33.1705 10.9411 33.05 10.8905C32.9361 10.8421 32.7116 10.8179 32.3764 10.8179Z" fill="#44B05E"/>
<path d="M37.4693 10C37.9687 10 38.397 10.1022 38.754 10.3067C39.1132 10.509 39.3849 10.7982 39.5689 11.1741C39.7529 11.5479 39.8449 11.9877 39.8449 12.4934C39.8449 12.8672 39.7945 13.2069 39.6937 13.5125C39.593 13.8182 39.4418 14.0831 39.2403 14.3074C39.0388 14.5317 38.7912 14.7032 38.4977 14.8219C38.2042 14.9406 37.868 15 37.489 15C37.1122 15 36.7749 14.9395 36.477 14.8186C36.1791 14.6955 35.9305 14.5229 35.7311 14.3008C35.5318 14.0787 35.3807 13.8116 35.2777 13.4993C35.177 13.1871 35.1266 12.8496 35.1266 12.4868C35.1266 12.1152 35.1791 11.7744 35.2843 11.4644C35.3916 11.1544 35.5461 10.8905 35.7476 10.6728C35.9491 10.4551 36.1944 10.2891 36.4836 10.1748C36.7727 10.0583 37.1013 10 37.4693 10ZM38.8559 12.4868C38.8559 12.1328 38.7989 11.8261 38.685 11.5666C38.5711 11.3072 38.4079 11.1115 38.1954 10.9796C37.9851 10.8454 37.7431 10.7784 37.4693 10.7784C37.2743 10.7784 37.0936 10.8157 36.9271 10.8905C36.7629 10.9631 36.6205 11.0697 36.5 11.2104C36.3817 11.3511 36.2875 11.5314 36.2174 11.7513C36.1495 11.969 36.1156 12.2142 36.1156 12.4868C36.1156 12.7617 36.1495 13.0101 36.2174 13.2322C36.2875 13.4543 36.385 13.639 36.5099 13.7863C36.6369 13.9314 36.7815 14.0402 36.9436 14.1128C37.1079 14.1854 37.2875 14.2216 37.4824 14.2216C37.7321 14.2216 37.9611 14.159 38.1691 14.0336C38.3794 13.9083 38.5459 13.7148 38.6686 13.4532C38.7934 13.1915 38.8559 12.8694 38.8559 12.4868Z" fill="#44B05E"/>
<path d="M41.951 10.5871L43.8271 13.4367V10.5607C43.8271 10.3738 43.8666 10.2342 43.9454 10.1418C44.0265 10.0473 44.1349 10 44.2707 10C44.4109 10 44.5215 10.0473 44.6026 10.1418C44.6836 10.2342 44.7241 10.3738 44.7241 10.5607V14.3635C44.7241 14.7878 44.5489 15 44.1984 15C44.1108 15 44.032 14.9868 43.9619 14.9604C43.8918 14.9362 43.8261 14.8967 43.7647 14.8417C43.7034 14.7867 43.6464 14.723 43.5939 14.6504C43.5413 14.5756 43.4887 14.4998 43.4361 14.4228L41.606 11.6062V14.4393C41.606 14.624 41.5633 14.7636 41.4779 14.8582C41.3924 14.9527 41.2829 15 41.1493 15C41.0113 15 40.9007 14.9527 40.8174 14.8582C40.7342 14.7614 40.6926 14.6218 40.6926 14.4393V10.7091C40.6926 10.5508 40.7101 10.4266 40.7451 10.3364C40.7868 10.2375 40.8558 10.1572 40.9521 10.0956C41.0485 10.0319 41.1526 10 41.2643 10C41.3519 10 41.4264 10.0143 41.4877 10.0429C41.5512 10.0715 41.606 10.1099 41.652 10.1583C41.7002 10.2067 41.7484 10.2693 41.7966 10.3463C41.847 10.4233 41.8984 10.5035 41.951 10.5871Z" fill="#44B05E"/>
<path d="M48.92 10.8905H47.8554V14.403C47.8554 14.6053 47.8105 14.7559 47.7207 14.8549C47.6309 14.9516 47.5148 15 47.3724 15C47.2279 15 47.1096 14.9505 47.0176 14.8516C46.9278 14.7526 46.8829 14.6031 46.8829 14.403V10.8905H45.8183C45.6518 10.8905 45.5281 10.8542 45.447 10.7817C45.366 10.7069 45.3254 10.6091 45.3254 10.4881C45.3254 10.3628 45.3671 10.2639 45.4503 10.1913C45.5357 10.1187 45.6584 10.0825 45.8183 10.0825H48.92C49.0887 10.0825 49.2135 10.1198 49.2946 10.1946C49.3778 10.2693 49.4194 10.3672 49.4194 10.4881C49.4194 10.6091 49.3778 10.7069 49.2946 10.7817C49.2113 10.8542 49.0865 10.8905 48.92 10.8905Z" fill="#44B05E"/>
<path d="M58.3779 30.2319H39.1587C38.7972 30.2541 38.5091 30.5424 38.4867 30.9039C38.4624 31.2994 38.7632 31.6397 39.1587 31.6639H58.3779C58.7394 31.6417 59.0276 31.3534 59.0499 30.9919C59.0742 30.5966 58.7734 30.2563 58.3779 30.2319Z" fill="#D7D7D7"/>
<path d="M58.3779 38.022H39.1587C38.7972 38.0442 38.5091 38.3325 38.4867 38.694C38.4624 39.0895 38.7632 39.4297 39.1587 39.4539H58.3779C58.7394 39.4317 59.0276 39.1435 59.0499 38.7819C59.0742 38.3866 58.7734 38.0463 58.3779 38.022Z" fill="#D7D7D7"/>
<path d="M58.3779 34.127H39.1587C38.7972 34.1491 38.5091 34.4374 38.4867 34.799C38.4624 35.1944 38.7632 35.5347 39.1587 35.5589H58.3779C58.7394 35.5367 59.0276 35.2484 59.0499 34.8869C59.0742 34.4916 58.7734 34.1513 58.3779 34.127Z" fill="#D7D7D7"/>
<path d="M58.3783 41.9175H39.1591C38.7976 41.9397 38.5094 42.228 38.4872 42.5893C38.4629 42.9848 38.7637 43.3251 39.1591 43.3494H58.3783C58.7398 43.3272 59.0279 43.039 59.0501 42.6776C59.0745 42.2821 58.7738 41.9418 58.3783 41.9175Z" fill="#D7D7D7"/>
<path d="M67.5 74.75C70.9518 74.75 73.75 71.9518 73.75 68.5C73.75 65.0482 70.9518 62.25 67.5 62.25C64.0482 62.25 61.25 65.0482 61.25 68.5C61.25 71.9518 64.0482 74.75 67.5 74.75Z" fill="#44B05E"/>
<path d="M70 68.0312H67.9688V66C67.9688 65.7438 67.7562 65.5312 67.5 65.5312C67.2438 65.5312 67.0312 65.7438 67.0312 66V68.0312H65C64.7438 68.0312 64.5312 68.2438 64.5312 68.5C64.5312 68.7562 64.7438 68.9688 65 68.9688H67.0312V71C67.0312 71.2562 67.2438 71.4688 67.5 71.4688C67.7562 71.4688 67.9688 71.2562 67.9688 71V68.9688H70C70.2562 68.9688 70.4688 68.7562 70.4688 68.5C70.4688 68.2438 70.2562 68.0312 70 68.0312Z" fill="white"/>
<defs>
<clipPath id="clip0_2832_903">
<rect width="20" height="20" fill="white" transform="translate(15 29)"/>
</clipPath>
</defs>
</svg>
