<svg width="118" height="101" viewBox="0 0 118 101" fill="none" xmlns="http://www.w3.org/2000/svg">
<path d="M0 5C0 2.23857 2.23858 0 5 0H113C115.761 0 118 2.23858 118 5V96C118 98.7614 115.761 101 113 101H5C2.23858 101 0 98.7614 0 96V5Z" fill="#F6FAFF"/>
<path d="M5 100.5C4.38892 100.5 3.80748 100.378 3.27759 100.159L3.08606 100.621C1.86386 100.114 0.886231 99.1361 0.379403 97.9139L0.841265 97.7224C0.621529 97.1925 0.5 96.6111 0.5 96V93.9318H0V89.7955H0.5V85.6591H0V81.5227H0.5V77.3864H0V73.25H0.5V69.1136H0V64.9773H0.5V60.8409H0V56.7045H0.5V52.5682H0V48.4318H0.5V44.2954H0V40.1591H0.5V36.0227H0V31.8864H0.5V27.75H0V23.6136H0.5V19.4773H0V15.3409H0.5V11.2046H0V7.0682H0.5V5C0.5 4.38892 0.621529 3.80748 0.841266 3.27759L0.379403 3.08606C0.88623 1.86386 1.86386 0.886229 3.08606 0.379402L3.27759 0.841265C3.80748 0.621529 4.38892 0.5 5 0.5H6.92857V0H10.7857V0.5H14.6429V0H18.5V0.5H22.3571V0H26.2143V0.5H30.0714V0H33.9286V0.5H37.7857V0H41.6429V0.5H45.5V0H49.3571V0.5H53.2143V0H57.0714V0.5H60.9286V0H64.7857V0.5H68.6429V0H72.5V0.5H76.3571V0H80.2143V0.5H84.0714V0H87.9286V0.5H91.7857V0H95.6428V0.5H99.5V0H103.357V0.5H107.214V0H111.071V0.5H113C113.611 0.5 114.193 0.621529 114.722 0.841266L114.914 0.379404C116.136 0.886231 117.114 1.86386 117.621 3.08606L117.159 3.27759C117.378 3.80748 117.5 4.38892 117.5 5V7.06818H118V11.2045H117.5V15.3409H118V19.4773H117.5V23.6136H118V27.75H117.5V31.8864H118V36.0227H117.5V40.1591H118V44.2955H117.5V48.4318H118V52.5682H117.5V56.7046H118V60.8409H117.5V64.9773H118V69.1136H117.5V73.25H118V77.3864H117.5V81.5227H118V85.6591H117.5V89.7954H118V93.9318H117.5V96C117.5 96.6111 117.378 97.1925 117.159 97.7224L117.621 97.9139C117.114 99.1361 116.136 100.114 114.914 100.621L114.722 100.159C114.193 100.378 113.611 100.5 113 100.5H111.071V101H107.214V100.5H103.357V101H99.5V100.5H95.6429V101H91.7857V100.5H87.9286V101H84.0714V100.5H80.2143V101H76.3571V100.5H72.5V101H68.6429V100.5H64.7857V101H60.9286V100.5H57.0714V101H53.2143V100.5H49.3571V101H45.5V100.5H41.6429V101H37.7857V100.5H33.9286V101H30.0714V100.5H26.2143V101H22.3572V100.5H18.5V101H14.6429V100.5H10.7857V101H6.9286V100.5H5Z" stroke="#1E72E3" stroke-opacity="0.2" stroke-dasharray="4 4"/>
<path fill-rule="evenodd" clip-rule="evenodd" d="M90.3408 30.9566C89.9052 30.9566 89.5517 30.603 89.5517 30.1675V20.0987C89.5517 19.2603 88.8699 18.5782 88.0315 18.5782H78.3254C77.2865 18.5782 77.2869 17 78.3254 17H88.0315C89.7403 17 91.1303 18.39 91.1303 20.0987V30.1675C91.1295 30.6038 90.7763 30.9566 90.3404 30.9566H90.3408Z" fill="#BFD9FB"/>
<path fill-rule="evenodd" clip-rule="evenodd" d="M26.7896 30.9566C26.354 30.9566 26.0005 30.603 26.0005 30.1675V20.0987C26.0005 18.39 27.3905 17 29.0992 17H38.8054C39.8442 17 39.8442 18.5782 38.8054 18.5782H29.0988C28.2604 18.5782 27.5783 19.2603 27.5783 20.0987V30.1675C27.5787 30.6038 27.2255 30.9566 26.7896 30.9566Z" fill="#BFD9FB"/>
<path fill-rule="evenodd" clip-rule="evenodd" d="M88.031 84.3336H78.3249C77.286 84.3336 77.2864 82.7554 78.3249 82.7554H88.031C88.8694 82.7554 89.5512 82.0736 89.5512 81.2352V71.1657C89.5512 70.1269 91.1294 70.1273 91.1294 71.1657V81.2352C91.1298 82.9436 89.7398 84.3336 88.031 84.3336Z" fill="#BFD9FB"/>
<path fill-rule="evenodd" clip-rule="evenodd" d="M38.8049 84.3335H29.0987C27.39 84.3335 26 82.9435 26 81.2347V71.1652C26 70.1264 27.5782 70.1268 27.5782 71.1652V81.2347C27.5782 82.0731 28.2603 82.7549 29.0987 82.7549H38.8049C39.8437 82.7549 39.8437 84.3335 38.8049 84.3335Z" fill="#BFD9FB"/>
<path d="M49.898 22.8377H47.9759V24.0745H49.5826C49.7315 24.0745 49.8421 24.1086 49.9144 24.1768C49.9889 24.2427 50.0261 24.3318 50.0261 24.4439C50.0261 24.5561 49.9889 24.6451 49.9144 24.7111C49.84 24.777 49.7293 24.81 49.5826 24.81H47.9759V26.403C47.9759 26.6053 47.9299 26.7559 47.8379 26.8549C47.748 26.9516 47.632 27 47.4896 27C47.345 27 47.2267 26.9505 47.1347 26.8516C47.0449 26.7526 47 26.6031 47 26.403V22.6827C47 22.542 47.0208 22.4277 47.0624 22.3397C47.104 22.2496 47.1687 22.1847 47.2563 22.1451C47.3461 22.1033 47.46 22.0825 47.598 22.0825H49.898C50.0535 22.0825 50.1685 22.1176 50.243 22.188C50.3197 22.2562 50.358 22.3463 50.358 22.4584C50.358 22.5728 50.3197 22.6651 50.243 22.7355C50.1685 22.8036 50.0535 22.8377 49.898 22.8377Z" fill="#44B05E"/>
<path d="M52.3984 24.8496H52.0567V26.403C52.0567 26.6075 52.0118 26.7581 51.922 26.8549C51.8322 26.9516 51.715 27 51.5704 27C51.4149 27 51.2944 26.9494 51.209 26.8483C51.1236 26.7471 51.0809 26.5987 51.0809 26.403V22.6827C51.0809 22.4716 51.128 22.3188 51.2221 22.2243C51.3163 22.1297 51.4686 22.0825 51.6789 22.0825H53.2659C53.4849 22.0825 53.6722 22.0923 53.8277 22.1121C53.9832 22.1297 54.1234 22.1671 54.2483 22.2243C54.3994 22.288 54.533 22.3793 54.6491 22.498C54.7652 22.6168 54.8529 22.7553 54.912 22.9136C54.9733 23.0697 55.004 23.2357 55.004 23.4116C55.004 23.7722 54.9021 24.0602 54.6984 24.2757C54.4969 24.4912 54.1902 24.644 53.7784 24.7342C53.9515 24.8265 54.1169 24.9628 54.2746 25.1431C54.4323 25.3234 54.5725 25.5158 54.6951 25.7203C54.82 25.9226 54.9164 26.1062 54.9843 26.2711C55.0544 26.4338 55.0894 26.546 55.0894 26.6075C55.0894 26.6713 55.0686 26.735 55.027 26.7988C54.9876 26.8604 54.9328 26.9088 54.8627 26.9439C54.7926 26.9813 54.7116 27 54.6196 27C54.51 27 54.418 26.9736 54.3436 26.9208C54.2691 26.8703 54.2045 26.8054 54.1497 26.7263C54.0971 26.6471 54.0249 26.5306 53.9329 26.3766L53.5419 25.7236C53.4017 25.4839 53.2757 25.3015 53.164 25.1761C53.0545 25.0508 52.9428 24.965 52.8289 24.9189C52.715 24.8727 52.5715 24.8496 52.3984 24.8496ZM52.957 22.8179H52.0567V24.1471H52.9307C53.1651 24.1471 53.3622 24.1273 53.5221 24.0877C53.682 24.046 53.8036 23.9767 53.8869 23.8799C53.9723 23.781 54.015 23.6458 54.015 23.4743C54.015 23.3401 53.981 23.2225 53.9131 23.1214C53.8452 23.018 53.751 22.9411 53.6306 22.8905C53.5167 22.8421 53.2921 22.8179 52.957 22.8179Z" fill="#44B05E"/>
<path d="M58.0499 22C58.5493 22 58.9775 22.1022 59.3346 22.3067C59.6938 22.509 59.9654 22.7982 60.1494 23.1741C60.3334 23.5479 60.4254 23.9877 60.4254 24.4934C60.4254 24.8672 60.375 25.2069 60.2743 25.5125C60.1735 25.8182 60.0224 26.0831 59.8209 26.3074C59.6193 26.5317 59.3718 26.7032 59.0783 26.8219C58.7848 26.9406 58.4485 27 58.0696 27C57.6928 27 57.3555 26.9395 57.0576 26.8186C56.7597 26.6955 56.511 26.5229 56.3117 26.3008C56.1124 26.0787 55.9612 25.8116 55.8583 25.4993C55.7575 25.1871 55.7071 24.8496 55.7071 24.4868C55.7071 24.1152 55.7597 23.7744 55.8649 23.4644C55.9722 23.1544 56.1266 22.8905 56.3281 22.6728C56.5297 22.4551 56.775 22.2891 57.0641 22.1748C57.3533 22.0583 57.6819 22 58.0499 22ZM59.4364 24.4868C59.4364 24.1328 59.3795 23.8261 59.2656 23.5666C59.1517 23.3072 58.9885 23.1115 58.776 22.9796C58.5657 22.8454 58.3237 22.7784 58.0499 22.7784C57.8549 22.7784 57.6742 22.8157 57.5077 22.8905C57.3434 22.9631 57.201 23.0697 57.0806 23.2104C56.9623 23.3511 56.8681 23.5314 56.798 23.7513C56.7301 23.969 56.6961 24.2142 56.6961 24.4868C56.6961 24.7617 56.7301 25.0101 56.798 25.2322C56.8681 25.4543 56.9656 25.639 57.0904 25.7863C57.2175 25.9314 57.362 26.0402 57.5241 26.1128C57.6884 26.1854 57.868 26.2216 58.063 26.2216C58.3127 26.2216 58.5416 26.159 58.7497 26.0336C58.96 25.9083 59.1265 25.7148 59.2491 25.4532C59.374 25.1915 59.4364 24.8694 59.4364 24.4868Z" fill="#44B05E"/>
<path d="M62.5316 22.5871L64.4077 25.4367V22.5607C64.4077 22.3738 64.4471 22.2342 64.526 22.1418C64.607 22.0473 64.7155 22 64.8513 22C64.9915 22 65.1021 22.0473 65.1831 22.1418C65.2642 22.2342 65.3047 22.3738 65.3047 22.5607V26.3635C65.3047 26.7878 65.1295 27 64.779 27C64.6914 27 64.6125 26.9868 64.5424 26.9604C64.4723 26.9362 64.4066 26.8967 64.3453 26.8417C64.284 26.7867 64.227 26.723 64.1744 26.6504C64.1219 26.5756 64.0693 26.4998 64.0167 26.4228L62.1866 23.6062V26.4393C62.1866 26.624 62.1439 26.7636 62.0584 26.8582C61.973 26.9527 61.8635 27 61.7299 27C61.5919 27 61.4812 26.9527 61.398 26.8582C61.3148 26.7614 61.2731 26.6218 61.2731 26.4393V22.7091C61.2731 22.5508 61.2907 22.4266 61.3257 22.3364C61.3673 22.2375 61.4363 22.1572 61.5327 22.0956C61.6291 22.0319 61.7331 22 61.8449 22C61.9325 22 62.007 22.0143 62.0683 22.0429C62.1318 22.0715 62.1866 22.1099 62.2326 22.1583C62.2808 22.2067 62.329 22.2693 62.3771 22.3463C62.4275 22.4233 62.479 22.5035 62.5316 22.5871Z" fill="#44B05E"/>
<path d="M69.5006 22.8905H68.436V26.403C68.436 26.6053 68.3911 26.7559 68.3013 26.8549C68.2115 26.9516 68.0954 27 67.953 27C67.8084 27 67.6901 26.9505 67.5981 26.8516C67.5083 26.7526 67.4634 26.6031 67.4634 26.403V22.8905H66.3989C66.2324 22.8905 66.1086 22.8542 66.0276 22.7817C65.9465 22.7069 65.906 22.6091 65.906 22.4881C65.906 22.3628 65.9476 22.2639 66.0309 22.1913C66.1163 22.1187 66.239 22.0825 66.3989 22.0825H69.5006C69.6692 22.0825 69.7941 22.1198 69.8751 22.1946C69.9584 22.2693 70 22.3672 70 22.4881C70 22.6091 69.9584 22.7069 69.8751 22.7817C69.7919 22.8542 69.667 22.8905 69.5006 22.8905Z" fill="#44B05E"/>
<path fill-rule="evenodd" clip-rule="evenodd" d="M90.3463 47.7417H26.7791C25.7403 47.7417 25.7403 46.1636 26.7791 46.1636H90.3463C91.3847 46.1636 91.3851 47.7417 90.3463 47.7417Z" fill="#BFD9FB"/>
<path d="M48.0382 51.5332H43.8355C40.2059 51.5422 37.2658 54.4823 37.2568 58.1118V60.2186C37.2568 60.6165 37.5794 60.939 37.9772 60.939H53.8937C53.8964 60.939 53.8991 60.939 53.9018 60.939C54.2997 60.936 54.6198 60.611 54.6168 60.2132V58.1118C54.6078 54.4823 51.6677 51.5422 48.0382 51.5332Z" fill="#BFD9FB"/>
<path d="M79.6044 57.9873H60.3035C59.9405 58.0096 59.6511 58.2991 59.6288 58.662C59.6044 59.0592 59.9065 59.4009 60.3035 59.4254H79.6044C79.9675 59.4031 80.2569 59.1136 80.2792 58.7506C80.3036 58.3535 80.0016 58.0118 79.6044 57.9873Z" fill="#BFD9FB"/>
<path d="M49.3238 49.152L49.3673 49.1113L49.369 49.1095C51.2635 47.2141 51.2628 44.1417 49.3673 42.2472C48.4588 41.3349 47.2242 40.8222 45.9366 40.8228C44.669 40.8222 43.4518 41.319 42.5467 42.2064L42.5032 42.2472L42.5014 42.249C40.607 44.1444 40.6076 47.2168 42.5032 49.1113C44.381 50.9928 47.4237 51.011 49.3238 49.152Z" fill="#BFD9FB"/>
<path d="M81.9571 30.8027H35.798C33.1512 30.8102 31.0075 32.954 31 35.6008V66.1614C31.0075 68.8082 33.1512 70.952 35.798 70.9595H81.9571C84.6039 70.952 86.7477 68.8082 86.7551 66.1614V35.6008C86.7477 32.954 84.6039 30.8102 81.9571 30.8027ZM85.3171 66.1614C85.3111 68.0146 83.8102 69.5154 81.9571 69.5214H35.798C33.9449 69.5154 32.444 68.0146 32.4381 66.1614V35.6008C32.444 33.7476 33.9449 32.2468 35.798 32.2408H81.9571C83.8102 32.2468 85.3111 33.7476 85.3171 35.6008V66.1614Z" fill="#BFD9FB"/>
<path d="M79.6046 42.3398H60.3037C59.9406 42.3621 59.6513 42.6516 59.6288 43.0147C59.6044 43.4119 59.9065 43.7536 60.3037 43.7779H79.6046C79.9676 43.7556 80.257 43.4661 80.2794 43.103C80.3038 42.706 80.0017 42.3643 79.6046 42.3398Z" fill="#BFD9FB"/>
<path d="M79.6046 50.1631H60.3037C59.9406 50.1854 59.6513 50.4749 59.6288 50.8379C59.6044 51.2351 59.9065 51.5768 60.3037 51.6011H79.6046C79.9676 51.5788 80.257 51.2893 80.2794 50.9263C80.3038 50.5293 80.0017 50.1876 79.6046 50.1631Z" fill="#BFD9FB"/>
<path d="M79.6046 46.2515H60.3037C59.9406 46.2738 59.6513 46.5633 59.6288 46.9263C59.6044 47.3235 59.9065 47.6652 60.3037 47.6895H79.6046C79.9676 47.6672 80.257 47.3777 80.2794 47.0147C80.3038 46.6176 80.0017 46.2759 79.6046 46.2515Z" fill="#BFD9FB"/>
<path d="M79.6044 54.0757H60.3035C59.9405 54.098 59.6511 54.3875 59.6288 54.7504C59.6044 55.1476 59.9065 55.4893 60.3035 55.5137H79.6044C79.9675 55.4914 80.2569 55.2019 80.2792 54.839C80.3036 54.4419 80.0016 54.1001 79.6044 54.0757Z" fill="#BFD9FB"/>
<path d="M88.5 87.75C91.9518 87.75 94.75 84.9518 94.75 81.5C94.75 78.0482 91.9518 75.25 88.5 75.25C85.0482 75.25 82.25 78.0482 82.25 81.5C82.25 84.9518 85.0482 87.75 88.5 87.75Z" fill="#44B05E"/>
<path d="M91 81.0312H88.9688V79C88.9688 78.7438 88.7562 78.5312 88.5 78.5312C88.2438 78.5312 88.0312 78.7438 88.0312 79V81.0312H86C85.7438 81.0312 85.5312 81.2438 85.5312 81.5C85.5312 81.7562 85.7438 81.9688 86 81.9688H88.0312V84C88.0312 84.2562 88.2438 84.4688 88.5 84.4688C88.7562 84.4688 88.9688 84.2562 88.9688 84V81.9688H91C91.2562 81.9688 91.4688 81.7562 91.4688 81.5C91.4688 81.2438 91.2562 81.0312 91 81.0312Z" fill="white"/>
</svg>
