<svg width="75" height="77" viewBox="0 0 75 77" fill="none" xmlns="http://www.w3.org/2000/svg">
<path fill-rule="evenodd" clip-rule="evenodd" d="M69.3408 18.9566C68.9052 18.9566 68.5517 18.603 68.5517 18.1675V8.09874C68.5517 7.26034 67.8699 6.57817 67.0315 6.57817H57.3254C56.2865 6.57817 56.2869 5 57.3254 5H67.0315C68.7403 5 70.1303 6.38997 70.1303 8.09874V18.1675C70.1295 18.6038 69.7763 18.9566 69.3404 18.9566H69.3408Z" fill="#BFD9FB"/>
<path fill-rule="evenodd" clip-rule="evenodd" d="M5.78957 18.9566C5.354 18.9566 5.00049 18.603 5.00049 18.1675V8.09874C5.00049 6.38997 6.39046 5 8.09923 5H17.8054C18.8442 5 18.8442 6.57817 17.8054 6.57817H8.09883C7.26043 6.57817 6.57826 7.26034 6.57826 8.09874V18.1675C6.57866 18.6038 6.22554 18.9566 5.78957 18.9566Z" fill="#BFD9FB"/>
<path fill-rule="evenodd" clip-rule="evenodd" d="M67.031 72.3336H57.3249C56.286 72.3336 56.2864 70.7554 57.3249 70.7554H67.031C67.8694 70.7554 68.5512 70.0736 68.5512 69.2352V59.1657C68.5512 58.1269 70.1294 58.1273 70.1294 59.1657V69.2352C70.1298 70.9436 68.7398 72.3336 67.031 72.3336Z" fill="#BFD9FB"/>
<path fill-rule="evenodd" clip-rule="evenodd" d="M17.8049 72.3335H8.09874C6.38997 72.3335 5 70.9435 5 69.2347V59.1652C5 58.1264 6.57817 58.1268 6.57817 59.1652V69.2347C6.57817 70.0731 7.26034 70.7549 8.09874 70.7549H17.8049C18.8437 70.7549 18.8437 72.3335 17.8049 72.3335Z" fill="#BFD9FB"/>
<path d="M28.898 10.8377H26.9759V12.0745H28.5826C28.7315 12.0745 28.8421 12.1086 28.9144 12.1768C28.9889 12.2427 29.0261 12.3318 29.0261 12.4439C29.0261 12.5561 28.9889 12.6451 28.9144 12.7111C28.84 12.777 28.7293 12.81 28.5826 12.81H26.9759V14.403C26.9759 14.6053 26.9299 14.7559 26.8379 14.8549C26.748 14.9516 26.632 15 26.4896 15C26.345 15 26.2267 14.9505 26.1347 14.8516C26.0449 14.7526 26 14.6031 26 14.403V10.6827C26 10.542 26.0208 10.4277 26.0624 10.3397C26.104 10.2496 26.1687 10.1847 26.2563 10.1451C26.3461 10.1033 26.46 10.0825 26.598 10.0825H28.898C29.0535 10.0825 29.1685 10.1176 29.243 10.188C29.3197 10.2562 29.358 10.3463 29.358 10.4584C29.358 10.5728 29.3197 10.6651 29.243 10.7355C29.1685 10.8036 29.0535 10.8377 28.898 10.8377Z" fill="#44B05E"/>
<path d="M31.3984 12.8496H31.0567V14.403C31.0567 14.6075 31.0118 14.7581 30.922 14.8549C30.8322 14.9516 30.715 15 30.5704 15C30.4149 15 30.2944 14.9494 30.209 14.8483C30.1236 14.7471 30.0809 14.5987 30.0809 14.403V10.6827C30.0809 10.4716 30.128 10.3188 30.2221 10.2243C30.3163 10.1297 30.4686 10.0825 30.6789 10.0825H32.2659C32.4849 10.0825 32.6722 10.0923 32.8277 10.1121C32.9832 10.1297 33.1234 10.1671 33.2483 10.2243C33.3994 10.288 33.533 10.3793 33.6491 10.498C33.7652 10.6168 33.8529 10.7553 33.912 10.9136C33.9733 11.0697 34.004 11.2357 34.004 11.4116C34.004 11.7722 33.9021 12.0602 33.6984 12.2757C33.4969 12.4912 33.1902 12.644 32.7784 12.7342C32.9515 12.8265 33.1169 12.9628 33.2746 13.1431C33.4323 13.3234 33.5725 13.5158 33.6951 13.7203C33.82 13.9226 33.9164 14.1062 33.9843 14.2711C34.0544 14.4338 34.0894 14.546 34.0894 14.6075C34.0894 14.6713 34.0686 14.735 34.027 14.7988C33.9876 14.8604 33.9328 14.9088 33.8627 14.9439C33.7926 14.9813 33.7116 15 33.6196 15C33.51 15 33.418 14.9736 33.3436 14.9208C33.2691 14.8703 33.2045 14.8054 33.1497 14.7263C33.0971 14.6471 33.0249 14.5306 32.9329 14.3766L32.5419 13.7236C32.4017 13.4839 32.2757 13.3015 32.164 13.1761C32.0545 13.0508 31.9428 12.965 31.8289 12.9189C31.715 12.8727 31.5715 12.8496 31.3984 12.8496ZM31.957 10.8179H31.0567V12.1471H31.9307C32.1651 12.1471 32.3622 12.1273 32.5221 12.0877C32.682 12.046 32.8036 11.9767 32.8869 11.8799C32.9723 11.781 33.015 11.6458 33.015 11.4743C33.015 11.3401 32.981 11.2225 32.9131 11.1214C32.8452 11.018 32.751 10.9411 32.6306 10.8905C32.5167 10.8421 32.2921 10.8179 31.957 10.8179Z" fill="#44B05E"/>
<path d="M37.0499 10C37.5493 10 37.9775 10.1022 38.3346 10.3067C38.6938 10.509 38.9654 10.7982 39.1494 11.1741C39.3334 11.5479 39.4254 11.9877 39.4254 12.4934C39.4254 12.8672 39.375 13.2069 39.2743 13.5125C39.1735 13.8182 39.0224 14.0831 38.8209 14.3074C38.6193 14.5317 38.3718 14.7032 38.0783 14.8219C37.7848 14.9406 37.4485 15 37.0696 15C36.6928 15 36.3555 14.9395 36.0576 14.8186C35.7597 14.6955 35.511 14.5229 35.3117 14.3008C35.1124 14.0787 34.9612 13.8116 34.8583 13.4993C34.7575 13.1871 34.7071 12.8496 34.7071 12.4868C34.7071 12.1152 34.7597 11.7744 34.8649 11.4644C34.9722 11.1544 35.1266 10.8905 35.3281 10.6728C35.5297 10.4551 35.775 10.2891 36.0641 10.1748C36.3533 10.0583 36.6819 10 37.0499 10ZM38.4364 12.4868C38.4364 12.1328 38.3795 11.8261 38.2656 11.5666C38.1517 11.3072 37.9885 11.1115 37.776 10.9796C37.5657 10.8454 37.3237 10.7784 37.0499 10.7784C36.8549 10.7784 36.6742 10.8157 36.5077 10.8905C36.3434 10.9631 36.201 11.0697 36.0806 11.2104C35.9623 11.3511 35.8681 11.5314 35.798 11.7513C35.7301 11.969 35.6961 12.2142 35.6961 12.4868C35.6961 12.7617 35.7301 13.0101 35.798 13.2322C35.8681 13.4543 35.9656 13.639 36.0904 13.7863C36.2175 13.9314 36.362 14.0402 36.5241 14.1128C36.6884 14.1854 36.868 14.2216 37.063 14.2216C37.3127 14.2216 37.5416 14.159 37.7497 14.0336C37.96 13.9083 38.1265 13.7148 38.2491 13.4532C38.374 13.1915 38.4364 12.8694 38.4364 12.4868Z" fill="#44B05E"/>
<path d="M41.5316 10.5871L43.4077 13.4367V10.5607C43.4077 10.3738 43.4471 10.2342 43.526 10.1418C43.607 10.0473 43.7155 10 43.8513 10C43.9915 10 44.1021 10.0473 44.1831 10.1418C44.2642 10.2342 44.3047 10.3738 44.3047 10.5607V14.3635C44.3047 14.7878 44.1295 15 43.779 15C43.6914 15 43.6125 14.9868 43.5424 14.9604C43.4723 14.9362 43.4066 14.8967 43.3453 14.8417C43.284 14.7867 43.227 14.723 43.1744 14.6504C43.1219 14.5756 43.0693 14.4998 43.0167 14.4228L41.1866 11.6062V14.4393C41.1866 14.624 41.1439 14.7636 41.0584 14.8582C40.973 14.9527 40.8635 15 40.7299 15C40.5919 15 40.4812 14.9527 40.398 14.8582C40.3148 14.7614 40.2731 14.6218 40.2731 14.4393V10.7091C40.2731 10.5508 40.2907 10.4266 40.3257 10.3364C40.3673 10.2375 40.4363 10.1572 40.5327 10.0956C40.6291 10.0319 40.7331 10 40.8449 10C40.9325 10 41.007 10.0143 41.0683 10.0429C41.1318 10.0715 41.1866 10.1099 41.2326 10.1583C41.2808 10.2067 41.329 10.2693 41.3771 10.3463C41.4275 10.4233 41.479 10.5035 41.5316 10.5871Z" fill="#44B05E"/>
<path d="M48.5006 10.8905H47.436V14.403C47.436 14.6053 47.3911 14.7559 47.3013 14.8549C47.2115 14.9516 47.0954 15 46.953 15C46.8084 15 46.6901 14.9505 46.5981 14.8516C46.5083 14.7526 46.4634 14.6031 46.4634 14.403V10.8905H45.3989C45.2324 10.8905 45.1086 10.8542 45.0276 10.7817C44.9465 10.7069 44.906 10.6091 44.906 10.4881C44.906 10.3628 44.9476 10.2639 45.0309 10.1913C45.1163 10.1187 45.239 10.0825 45.3989 10.0825H48.5006C48.6692 10.0825 48.7941 10.1198 48.8751 10.1946C48.9584 10.2693 49 10.3672 49 10.4881C49 10.6091 48.9584 10.7069 48.8751 10.7817C48.7919 10.8542 48.667 10.8905 48.5006 10.8905Z" fill="#44B05E"/>
<path fill-rule="evenodd" clip-rule="evenodd" d="M69.3463 35.7417H5.77912C4.74029 35.7417 4.74029 34.1636 5.77912 34.1636H69.3463C70.3847 34.1636 70.3851 35.7417 69.3463 35.7417Z" fill="#BFD9FB"/>
<path d="M27.0382 39.5332H22.8355C19.2059 39.5422 16.2658 42.4823 16.2568 46.1118V48.2186C16.2568 48.6165 16.5794 48.939 16.9772 48.939H32.8937C32.8964 48.939 32.8991 48.939 32.9018 48.939C33.2997 48.936 33.6198 48.611 33.6168 48.2132V46.1118C33.6078 42.4823 30.6677 39.5422 27.0382 39.5332Z" fill="#BFD9FB"/>
<path d="M58.6044 45.9873H39.3035C38.9405 46.0096 38.6511 46.2991 38.6288 46.662C38.6044 47.0592 38.9065 47.4009 39.3035 47.4254H58.6044C58.9675 47.4031 59.2569 47.1136 59.2792 46.7506C59.3036 46.3535 59.0016 46.0118 58.6044 45.9873Z" fill="#BFD9FB"/>
<path d="M28.3238 37.152L28.3673 37.1113L28.369 37.1095C30.2635 35.2141 30.2628 32.1417 28.3673 30.2472C27.4588 29.3349 26.2242 28.8222 24.9366 28.8228C23.669 28.8222 22.4518 29.319 21.5467 30.2064L21.5032 30.2472L21.5014 30.249C19.607 32.1444 19.6076 35.2168 21.5032 37.1113C23.381 38.9928 26.4237 39.011 28.3238 37.152Z" fill="#BFD9FB"/>
<path d="M60.9571 18.8027H14.798C12.1512 18.8102 10.0075 20.954 10 23.6008V54.1614C10.0075 56.8082 12.1512 58.952 14.798 58.9595H60.9571C63.6039 58.952 65.7477 56.8082 65.7551 54.1614V23.6008C65.7477 20.954 63.6039 18.8102 60.9571 18.8027ZM64.3171 54.1614C64.3111 56.0146 62.8102 57.5154 60.9571 57.5214H14.798C12.9449 57.5154 11.444 56.0146 11.4381 54.1614V23.6008C11.444 21.7476 12.9449 20.2468 14.798 20.2408H60.9571C62.8102 20.2468 64.3111 21.7476 64.3171 23.6008V54.1614Z" fill="#BFD9FB"/>
<path d="M58.6046 30.3398H39.3037C38.9406 30.3621 38.6513 30.6516 38.6288 31.0147C38.6044 31.4119 38.9065 31.7536 39.3037 31.7779H58.6046C58.9676 31.7556 59.257 31.4661 59.2794 31.103C59.3038 30.706 59.0017 30.3643 58.6046 30.3398Z" fill="#BFD9FB"/>
<path d="M58.6046 38.1631H39.3037C38.9406 38.1854 38.6513 38.4749 38.6288 38.8379C38.6044 39.2351 38.9065 39.5768 39.3037 39.6011H58.6046C58.9676 39.5788 59.257 39.2893 59.2794 38.9263C59.3038 38.5293 59.0017 38.1876 58.6046 38.1631Z" fill="#BFD9FB"/>
<path d="M58.6046 34.2515H39.3037C38.9406 34.2738 38.6513 34.5633 38.6288 34.9263C38.6044 35.3235 38.9065 35.6652 39.3037 35.6895H58.6046C58.9676 35.6672 59.257 35.3777 59.2794 35.0147C59.3038 34.6176 59.0017 34.2759 58.6046 34.2515Z" fill="#BFD9FB"/>
<path d="M58.6044 42.0757H39.3035C38.9405 42.098 38.6511 42.3875 38.6288 42.7504C38.6044 43.1476 38.9065 43.4893 39.3035 43.5137H58.6044C58.9675 43.4914 59.2569 43.2019 59.2792 42.839C59.3036 42.4419 59.0016 42.1001 58.6044 42.0757Z" fill="#BFD9FB"/>
<path d="M67.5 75.75C70.9518 75.75 73.75 72.9518 73.75 69.5C73.75 66.0482 70.9518 63.25 67.5 63.25C64.0482 63.25 61.25 66.0482 61.25 69.5C61.25 72.9518 64.0482 75.75 67.5 75.75Z" fill="#44B05E"/>
<path d="M70 69.0312H67.9688V67C67.9688 66.7438 67.7562 66.5312 67.5 66.5312C67.2438 66.5312 67.0312 66.7438 67.0312 67V69.0312H65C64.7438 69.0312 64.5312 69.2438 64.5312 69.5C64.5312 69.7562 64.7438 69.9688 65 69.9688H67.0312V72C67.0312 72.2562 67.2438 72.4688 67.5 72.4688C67.7562 72.4688 67.9688 72.2562 67.9688 72V69.9688H70C70.2562 69.9688 70.4688 69.7562 70.4688 69.5C70.4688 69.2438 70.2562 69.0312 70 69.0312Z" fill="white"/>
</svg>
