<svg width="20" height="22" viewBox="0 0 20 22" fill="none" xmlns="http://www.w3.org/2000/svg">
<path d="M13.6668 14.6667C13.6668 14.9098 13.5703 15.143 13.3983 15.3149C13.2264 15.4868 12.9933 15.5834 12.7502 15.5834H10.9168V17.4167C10.9168 17.6598 10.8203 17.893 10.6483 18.0649C10.4764 18.2368 10.2433 18.3334 10.0002 18.3334C9.75705 18.3334 9.52389 18.2368 9.35198 18.0649C9.18007 17.893 9.0835 17.6598 9.0835 17.4167V15.5834H7.25016C7.00705 15.5834 6.77389 15.4868 6.60198 15.3149C6.43007 15.143 6.3335 14.9098 6.3335 14.6667C6.3335 14.4236 6.43007 14.1904 6.60198 14.0185C6.77389 13.8466 7.00705 13.75 7.25016 13.75H9.0835V11.9167C9.0835 11.6736 9.18007 11.4404 9.35198 11.2685C9.52389 11.0966 9.75705 11 10.0002 11C10.2433 11 10.4764 11.0966 10.6483 11.2685C10.8203 11.4404 10.9168 11.6736 10.9168 11.9167V13.75H12.7502C12.9933 13.75 13.2264 13.8466 13.3983 14.0185C13.5703 14.1904 13.6668 14.4236 13.6668 14.6667ZM19.1668 9.61127V17.4167C19.1654 18.6318 18.682 19.7968 17.8228 20.656C16.9636 21.5152 15.7986 21.9986 14.5835 22H5.41683C4.2017 21.9986 3.03676 21.5152 2.17753 20.656C1.3183 19.7968 0.834952 18.6318 0.833496 17.4167V4.58335C0.834952 3.36823 1.3183 2.20328 2.17753 1.34406C3.03676 0.48483 4.2017 0.00147666 5.41683 2.1128e-05H9.55558C10.3986 -0.00214855 11.2336 0.16281 12.0125 0.485359C12.7913 0.807908 13.4985 1.28165 14.0931 1.87919L17.2867 5.07469C17.8846 5.66891 18.3587 6.37586 18.6814 7.15458C19.0041 7.93331 19.1691 8.76832 19.1668 9.61127ZM12.7969 3.17535C12.5084 2.89592 12.1845 2.65553 11.8335 2.46035V6.41669C11.8335 6.6598 11.9301 6.89296 12.102 7.06487C12.2739 7.23678 12.507 7.33335 12.7502 7.33335H16.7065C16.5112 6.98244 16.2705 6.65882 15.9906 6.37085L12.7969 3.17535ZM17.3335 9.61127C17.3335 9.46002 17.3042 9.31519 17.2904 9.16669H12.7502C12.0208 9.16669 11.3213 8.87696 10.8056 8.36123C10.2899 7.84551 10.0002 7.14603 10.0002 6.41669V1.87644C9.85166 1.86269 9.70591 1.83335 9.55558 1.83335H5.41683C4.68748 1.83335 3.98801 2.12309 3.47229 2.63881C2.95656 3.15454 2.66683 3.85401 2.66683 4.58335V17.4167C2.66683 18.146 2.95656 18.8455 3.47229 19.3612C3.98801 19.877 4.68748 20.1667 5.41683 20.1667H14.5835C15.3128 20.1667 16.0123 19.877 16.528 19.3612C17.0438 18.8455 17.3335 18.146 17.3335 17.4167V9.61127Z" fill="#1E72E3"/>
</svg>
