<svg width="118" height="101" viewBox="0 0 118 101" fill="none" xmlns="http://www.w3.org/2000/svg">
<path d="M0 5C0 2.23857 2.23858 0 5 0H113C115.761 0 118 2.23858 118 5V96C118 98.7614 115.761 101 113 101H5C2.23858 101 0 98.7614 0 96V5Z" fill="#F6FAFF"/>
<path d="M5 100.5C4.38892 100.5 3.80748 100.378 3.27759 100.159L3.08606 100.621C1.86386 100.114 0.886231 99.1361 0.379403 97.9139L0.841265 97.7224C0.621529 97.1925 0.5 96.6111 0.5 96V93.9318H0V89.7955H0.5V85.6591H0V81.5227H0.5V77.3864H0V73.25H0.5V69.1136H0V64.9773H0.5V60.8409H0V56.7045H0.5V52.5682H0V48.4318H0.5V44.2954H0V40.1591H0.5V36.0227H0V31.8864H0.5V27.75H0V23.6136H0.5V19.4773H0V15.3409H0.5V11.2046H0V7.0682H0.5V5C0.5 4.38892 0.621529 3.80748 0.841266 3.27759L0.379403 3.08606C0.88623 1.86386 1.86386 0.886229 3.08606 0.379402L3.27759 0.841265C3.80748 0.621529 4.38892 0.5 5 0.5H6.92857V0H10.7857V0.5H14.6429V0H18.5V0.5H22.3571V0H26.2143V0.5H30.0714V0H33.9286V0.5H37.7857V0H41.6429V0.5H45.5V0H49.3571V0.5H53.2143V0H57.0714V0.5H60.9286V0H64.7857V0.5H68.6429V0H72.5V0.5H76.3571V0H80.2143V0.5H84.0714V0H87.9286V0.5H91.7857V0H95.6428V0.5H99.5V0H103.357V0.5H107.214V0H111.071V0.5H113C113.611 0.5 114.193 0.621529 114.722 0.841266L114.914 0.379404C116.136 0.886231 117.114 1.86386 117.621 3.08606L117.159 3.27759C117.378 3.80748 117.5 4.38892 117.5 5V7.06818H118V11.2045H117.5V15.3409H118V19.4773H117.5V23.6136H118V27.75H117.5V31.8864H118V36.0227H117.5V40.1591H118V44.2955H117.5V48.4318H118V52.5682H117.5V56.7046H118V60.8409H117.5V64.9773H118V69.1136H117.5V73.25H118V77.3864H117.5V81.5227H118V85.6591H117.5V89.7954H118V93.9318H117.5V96C117.5 96.6111 117.378 97.1925 117.159 97.7224L117.621 97.9139C117.114 99.1361 116.136 100.114 114.914 100.621L114.722 100.159C114.193 100.378 113.611 100.5 113 100.5H111.071V101H107.214V100.5H103.357V101H99.5V100.5H95.6429V101H91.7857V100.5H87.9286V101H84.0714V100.5H80.2143V101H76.3571V100.5H72.5V101H68.6429V100.5H64.7857V101H60.9286V100.5H57.0714V101H53.2143V100.5H49.3571V101H45.5V100.5H41.6429V101H37.7857V100.5H33.9286V101H30.0714V100.5H26.2143V101H22.3572V100.5H18.5V101H14.6429V100.5H10.7857V101H6.9286V100.5H5Z" stroke="#1E72E3" stroke-opacity="0.2" stroke-dasharray="4 4"/>
<path fill-rule="evenodd" clip-rule="evenodd" d="M90.3408 30.9566C89.9052 30.9566 89.5517 30.603 89.5517 30.1675V20.0987C89.5517 19.2603 88.8699 18.5782 88.0315 18.5782H78.3254C77.2865 18.5782 77.2869 17 78.3254 17H88.0315C89.7403 17 91.1303 18.39 91.1303 20.0987V30.1675C91.1295 30.6038 90.7763 30.9566 90.3404 30.9566H90.3408Z" fill="#BFD9FB"/>
<path fill-rule="evenodd" clip-rule="evenodd" d="M26.7896 30.9566C26.354 30.9566 26.0005 30.603 26.0005 30.1675V20.0987C26.0005 18.39 27.3905 17 29.0992 17H38.8054C39.8442 17 39.8442 18.5782 38.8054 18.5782H29.0988C28.2604 18.5782 27.5783 19.2603 27.5783 20.0987V30.1675C27.5787 30.6038 27.2255 30.9566 26.7896 30.9566Z" fill="#BFD9FB"/>
<path fill-rule="evenodd" clip-rule="evenodd" d="M88.031 84.3336H78.3249C77.286 84.3336 77.2864 82.7554 78.3249 82.7554H88.031C88.8694 82.7554 89.5512 82.0736 89.5512 81.2352V71.1657C89.5512 70.1269 91.1294 70.1273 91.1294 71.1657V81.2352C91.1298 82.9436 89.7398 84.3336 88.031 84.3336Z" fill="#BFD9FB"/>
<path fill-rule="evenodd" clip-rule="evenodd" d="M38.8049 84.3335H29.0987C27.39 84.3335 26 82.9435 26 81.2347V71.1652C26 70.1264 27.5782 70.1268 27.5782 71.1652V81.2347C27.5782 82.0731 28.2603 82.7549 29.0987 82.7549H38.8049C39.8437 82.7549 39.8437 84.3335 38.8049 84.3335Z" fill="#BFD9FB"/>
<path d="M47.16 22.6431L48.3787 25.8852L49.601 22.6201C49.6646 22.4485 49.7124 22.3298 49.7442 22.2639C49.776 22.1957 49.8286 22.1352 49.902 22.0825C49.9754 22.0275 50.0758 22 50.203 22C50.296 22 50.3817 22.0209 50.46 22.0627C50.5407 22.1044 50.6031 22.1605 50.6472 22.2309C50.6937 22.299 50.7169 22.3683 50.7169 22.4387C50.7169 22.487 50.7096 22.5398 50.6949 22.597C50.6802 22.6519 50.6619 22.7069 50.6398 22.7619C50.6178 22.8146 50.5958 22.8696 50.5738 22.9268L49.2706 26.0864C49.2242 26.2073 49.1777 26.3228 49.1312 26.4327C49.0847 26.5405 49.0308 26.6361 48.9696 26.7197C48.9085 26.801 48.8265 26.8681 48.7237 26.9208C48.6234 26.9736 48.4998 27 48.353 27C48.2061 27 48.0813 26.9736 47.9785 26.9208C47.8782 26.8703 47.7962 26.8032 47.7326 26.7197C47.6714 26.6339 47.6176 26.5372 47.5711 26.4294C47.5246 26.3217 47.4781 26.2073 47.4316 26.0864L46.1505 22.9532C46.1285 22.896 46.1052 22.8399 46.0808 22.785C46.0587 22.73 46.0392 22.6706 46.022 22.6069C46.0073 22.5431 46 22.4892 46 22.4453C46 22.3331 46.0502 22.2309 46.1505 22.1385C46.2508 22.0462 46.3769 22 46.5286 22C46.7146 22 46.8455 22.0517 46.9214 22.155C46.9997 22.2562 47.0792 22.4189 47.16 22.6431Z" fill="#44B05E"/>
<path d="M55.0851 22.8377H52.6294V24.0251H54.8906C55.057 24.0251 55.1806 24.0591 55.2613 24.1273C55.3445 24.1933 55.3861 24.2812 55.3861 24.3912C55.3861 24.5011 55.3458 24.5912 55.265 24.6616C55.1842 24.7298 55.0594 24.7639 54.8906 24.7639H52.6294V26.1392H55.1696C55.3409 26.1392 55.4693 26.1755 55.555 26.248C55.6431 26.3184 55.6871 26.4129 55.6871 26.5317C55.6871 26.646 55.6431 26.7394 55.555 26.812C55.4693 26.8824 55.3409 26.9175 55.1696 26.9175H52.2073C51.9699 26.9175 51.7986 26.8703 51.6934 26.7757C51.5906 26.6812 51.5392 26.5284 51.5392 26.3173V22.6827C51.5392 22.542 51.5624 22.4277 51.6089 22.3397C51.6554 22.2496 51.7276 22.1847 51.8255 22.1451C51.9258 22.1033 52.0531 22.0825 52.2073 22.0825H55.0851C55.2589 22.0825 55.3874 22.1176 55.4706 22.188C55.5562 22.2562 55.599 22.3463 55.599 22.4584C55.599 22.5728 55.5562 22.6651 55.4706 22.7355C55.3874 22.8036 55.2589 22.8377 55.0851 22.8377Z" fill="#44B05E"/>
<path d="M58.0181 24.8496H57.6363V26.403C57.6363 26.6075 57.5861 26.7581 57.4858 26.8549C57.3855 26.9516 57.2546 27 57.093 27C56.9193 27 56.7847 26.9494 56.6893 26.8483C56.5938 26.7471 56.5461 26.5987 56.5461 26.403V22.6827C56.5461 22.4716 56.5987 22.3188 56.7039 22.2243C56.8092 22.1297 56.9792 22.0825 57.2142 22.0825H58.9872C59.2319 22.0825 59.4411 22.0923 59.6149 22.1121C59.7886 22.1297 59.9452 22.1671 60.0847 22.2243C60.2536 22.288 60.4028 22.3793 60.5325 22.498C60.6622 22.6168 60.7601 22.7553 60.8262 22.9136C60.8947 23.0697 60.929 23.2357 60.929 23.4116C60.929 23.7722 60.8152 24.0602 60.5876 24.2757C60.3625 24.4912 60.0199 24.644 59.5598 24.7342C59.7531 24.8265 59.9379 24.9628 60.1141 25.1431C60.2903 25.3234 60.4469 25.5158 60.5839 25.7203C60.7234 25.9226 60.8311 26.1062 60.907 26.2711C60.9853 26.4338 61.0244 26.546 61.0244 26.6075C61.0244 26.6713 61.0012 26.735 60.9547 26.7988C60.9106 26.8604 60.8495 26.9088 60.7711 26.9439C60.6928 26.9813 60.6023 27 60.4995 27C60.3771 27 60.2744 26.9736 60.1912 26.9208C60.108 26.8703 60.0358 26.8054 59.9746 26.7263C59.9159 26.6471 59.8351 26.5306 59.7323 26.3766L59.2955 25.7236C59.1389 25.4839 58.9982 25.3015 58.8734 25.1761C58.751 25.0508 58.6262 24.965 58.4989 24.9189C58.3717 24.8727 58.2114 24.8496 58.0181 24.8496ZM58.6421 22.8179H57.6363V24.1471H58.6127C58.8746 24.1471 59.0948 24.1273 59.2735 24.0877C59.4521 24.046 59.5879 23.9767 59.6809 23.8799C59.7764 23.781 59.8241 23.6458 59.8241 23.4743C59.8241 23.3401 59.7862 23.2225 59.7103 23.1214C59.6344 23.018 59.5292 22.9411 59.3946 22.8905C59.2674 22.8421 59.0165 22.8179 58.6421 22.8179Z" fill="#44B05E"/>
<path d="M66.0534 25.4664C66.0534 25.7588 65.9689 26.0215 65.8001 26.2546C65.6337 26.4877 65.389 26.6702 65.0659 26.8021C64.7429 26.934 64.3599 27 63.917 27C63.3859 27 62.9479 26.9099 62.6029 26.7296C62.3581 26.5998 62.1587 26.4272 62.0045 26.2117C61.8528 25.9941 61.7769 25.783 61.7769 25.5785C61.7769 25.4598 61.8222 25.3586 61.9127 25.2751C62.0057 25.1893 62.1232 25.1464 62.2651 25.1464C62.3802 25.1464 62.4768 25.1794 62.5551 25.2454C62.6359 25.3113 62.7044 25.4092 62.7607 25.5389C62.8292 25.6928 62.9026 25.8215 62.9809 25.9248C63.0617 26.0281 63.1743 26.1139 63.3187 26.1821C63.463 26.248 63.6527 26.281 63.8876 26.281C64.2106 26.281 64.4725 26.2139 64.6732 26.0798C64.8763 25.9435 64.9778 25.7742 64.9778 25.5719C64.9778 25.4114 64.9228 25.2817 64.8127 25.1827C64.705 25.0816 64.5643 25.0046 64.3905 24.9518C64.2192 24.8991 63.9892 24.843 63.7004 24.7836C63.3138 24.7023 62.9895 24.6077 62.7277 24.5C62.4683 24.3901 62.2615 24.2416 62.1073 24.0547C61.9556 23.8657 61.8797 23.6315 61.8797 23.3522C61.8797 23.0862 61.9605 22.8498 62.122 22.6431C62.2835 22.4365 62.5172 22.2781 62.8231 22.1682C63.129 22.0561 63.4887 22 63.9023 22C64.2327 22 64.5178 22.0374 64.7576 22.1121C64.9999 22.1847 65.2005 22.2825 65.3596 22.4057C65.5187 22.5266 65.6349 22.6541 65.7083 22.7883C65.7817 22.9224 65.8184 23.0532 65.8184 23.1807C65.8184 23.2973 65.7719 23.4028 65.679 23.4974C65.5884 23.5897 65.4746 23.6359 65.3376 23.6359C65.2128 23.6359 65.1173 23.6084 65.0513 23.5534C64.9876 23.4963 64.9179 23.4039 64.842 23.2764C64.7441 23.0939 64.6267 22.9521 64.4896 22.8509C64.3526 22.7476 64.1323 22.6959 63.8289 22.6959C63.5475 22.6959 63.3199 22.752 63.1461 22.8641C62.9748 22.9741 62.8892 23.1071 62.8892 23.2632C62.8892 23.3599 62.9185 23.4435 62.9773 23.5139C63.036 23.5842 63.1168 23.6447 63.2195 23.6953C63.3223 23.7458 63.4263 23.7854 63.5316 23.814C63.6368 23.8426 63.8105 23.8843 64.0528 23.9393C64.3563 24.0031 64.6303 24.0734 64.8751 24.1504C65.1222 24.2274 65.3315 24.3208 65.5028 24.4307C65.6765 24.5407 65.8111 24.6803 65.9065 24.8496C66.0044 25.0167 66.0534 25.2223 66.0534 25.4664Z" fill="#44B05E"/>
<path d="M69.346 22C69.904 22 70.3824 22.1022 70.7813 22.3067C71.1826 22.509 71.4861 22.7982 71.6917 23.1741C71.8972 23.5479 72 23.9877 72 24.4934C72 24.8672 71.9437 25.2069 71.8311 25.5125C71.7186 25.8182 71.5497 26.0831 71.3246 26.3074C71.0994 26.5317 70.8229 26.7032 70.495 26.8219C70.1671 26.9406 69.7914 27 69.3681 27C68.9472 27 68.5703 26.9395 68.2375 26.8186C67.9047 26.6955 67.6269 26.5229 67.4042 26.3008C67.1815 26.0787 67.0127 25.8116 66.8976 25.4993C66.7851 25.1871 66.7288 24.8496 66.7288 24.4868C66.7288 24.1152 66.7875 23.7744 66.905 23.4644C67.0249 23.1544 67.1974 22.8905 67.4226 22.6728C67.6477 22.4551 67.9218 22.2891 68.2448 22.1748C68.5678 22.0583 68.9349 22 69.346 22ZM70.8951 24.4868C70.8951 24.1328 70.8315 23.8261 70.7042 23.5666C70.577 23.3072 70.3947 23.1115 70.1573 22.9796C69.9224 22.8454 69.6519 22.7784 69.346 22.7784C69.1282 22.7784 68.9264 22.8157 68.7404 22.8905C68.5568 22.9631 68.3978 23.0697 68.2632 23.2104C68.131 23.3511 68.0258 23.5314 67.9475 23.7513C67.8716 23.969 67.8337 24.2142 67.8337 24.4868C67.8337 24.7617 67.8716 25.0101 67.9475 25.2322C68.0258 25.4543 68.1347 25.639 68.2742 25.7863C68.4161 25.9314 68.5776 26.0402 68.7587 26.1128C68.9423 26.1854 69.1429 26.2216 69.3607 26.2216C69.6397 26.2216 69.8954 26.159 70.1279 26.0336C70.3628 25.9083 70.5488 25.7148 70.6859 25.4532C70.8254 25.1915 70.8951 24.8694 70.8951 24.4868Z" fill="#44B05E"/>
<path fill-rule="evenodd" clip-rule="evenodd" d="M90.3463 47.7417H26.7791C25.7403 47.7417 25.7403 46.1636 26.7791 46.1636H90.3463C91.3847 46.1636 91.3851 47.7417 90.3463 47.7417Z" fill="#BFD9FB"/>
<path d="M77.0586 41.6763L77.0586 60.9772C77.0809 61.3403 77.3704 61.6296 77.7333 61.6519C78.1305 61.6764 78.4722 61.3742 78.4966 60.9772L78.4966 41.6763C78.4744 41.3133 78.1848 41.0239 77.8219 41.0016C77.4248 40.9771 77.0831 41.2792 77.0586 41.6763Z" fill="#BFD9FB"/>
<path d="M56.8242 41.232L56.8242 60.5329C56.8465 60.8959 57.136 61.1853 57.4989 61.2076C57.8961 61.2321 58.2378 60.9299 58.2623 60.5329L58.2623 41.232C58.24 40.8689 57.9505 40.5796 57.5876 40.5573C57.1904 40.5328 56.8487 40.8348 56.8242 41.232Z" fill="#BFD9FB"/>
<path d="M81.9571 30.8027H35.798C33.1512 30.8102 31.0075 32.954 31 35.6008V66.1614C31.0075 68.8082 33.1512 70.952 35.798 70.9595H81.9571C84.6039 70.952 86.7477 68.8082 86.7551 66.1614V35.6008C86.7477 32.954 84.6039 30.8102 81.9571 30.8027ZM85.3171 66.1614C85.3111 68.0146 83.8102 69.5154 81.9571 69.5214H35.798C33.9449 69.5154 32.444 68.0146 32.4381 66.1614V35.6008C32.444 33.7476 33.9449 32.2468 35.798 32.2408H81.9571C83.8102 32.2468 85.3111 33.7476 85.3171 35.6008V66.1614Z" fill="#BFD9FB"/>
<path d="M61.4111 41.6762L61.4111 60.9771C61.4334 61.3401 61.7229 61.6295 62.086 61.6519C62.4831 61.6764 62.8249 61.3742 62.8492 60.9771L62.8492 41.6762C62.8269 41.3131 62.5374 41.0238 62.1743 41.0013C61.7773 40.977 61.4356 41.279 61.4111 41.6762Z" fill="#BFD9FB"/>
<path d="M69.2344 41.6762L69.2344 60.9771C69.2567 61.3401 69.5462 61.6295 69.9092 61.6519C70.3064 61.6764 70.6481 61.3742 70.6724 60.9771L70.6724 41.6762C70.6501 41.3131 70.3606 41.0238 69.9976 41.0013C69.6005 40.977 69.2588 41.279 69.2344 41.6762Z" fill="#BFD9FB"/>
<path d="M49 41.6762L49 60.9771C49.0223 61.3401 49.3118 61.6295 49.6749 61.6519C50.072 61.6764 50.4137 61.3742 50.4381 60.9771L50.4381 41.6762C50.4158 41.3131 50.1262 41.0238 49.7632 41.0013C49.3662 40.977 49.0245 41.279 49 41.6762Z" fill="#BFD9FB"/>
<path d="M39 41.6762L39 60.9771C39.0223 61.3401 39.3118 61.6295 39.6749 61.6519C40.072 61.6764 40.4137 61.3742 40.4381 60.9771L40.4381 41.6762C40.4158 41.3131 40.1262 41.0238 39.7632 41.0013C39.3662 40.977 39.0245 41.279 39 41.6762Z" fill="#BFD9FB"/>
<path d="M43 41.6762L43 60.9771C43.0223 61.3401 43.3118 61.6295 43.6749 61.6519C44.072 61.6764 44.4137 61.3742 44.4381 60.9771L44.4381 41.6762C44.4158 41.3131 44.1262 41.0238 43.7632 41.0013C43.3662 40.977 43.0245 41.279 43 41.6762Z" fill="#BFD9FB"/>
<path d="M79.6046 46.2515H60.3037C59.9406 46.2738 59.6513 46.5633 59.6288 46.9263C59.6044 47.3235 59.9065 47.6652 60.3037 47.6895H79.6046C79.9676 47.6672 80.257 47.3777 80.2794 47.0147C80.3038 46.6176 80.0017 46.2759 79.6046 46.2515Z" fill="#BFD9FB"/>
<path d="M73.1475 41.6763L73.1475 60.9772C73.1698 61.3403 73.4593 61.6296 73.8222 61.6519C74.2193 61.6764 74.561 61.3742 74.5855 60.9772L74.5855 41.6763C74.5632 41.3133 74.2737 41.0239 73.9108 41.0016C73.5136 40.9771 73.1719 41.2792 73.1475 41.6763Z" fill="#BFD9FB"/>
<path d="M52.9131 41.6763L52.9131 60.9772C52.9354 61.3403 53.2249 61.6296 53.5878 61.6519C53.985 61.6764 54.3267 61.3742 54.3511 60.9772L54.3511 41.6763C54.3288 41.3133 54.0393 41.0239 53.6764 41.0016C53.2793 40.9771 52.9376 41.2792 52.9131 41.6763Z" fill="#BFD9FB"/>
<path d="M88.5 87.75C91.9518 87.75 94.75 84.9518 94.75 81.5C94.75 78.0482 91.9518 75.25 88.5 75.25C85.0482 75.25 82.25 78.0482 82.25 81.5C82.25 84.9518 85.0482 87.75 88.5 87.75Z" fill="#44B05E"/>
<path d="M91 81.0312H88.9688V79C88.9688 78.7438 88.7562 78.5312 88.5 78.5312C88.2438 78.5312 88.0312 78.7438 88.0312 79V81.0312H86C85.7438 81.0312 85.5312 81.2438 85.5312 81.5C85.5312 81.7562 85.7438 81.9688 86 81.9688H88.0312V84C88.0312 84.2562 88.2438 84.4688 88.5 84.4688C88.7562 84.4688 88.9688 84.2562 88.9688 84V81.9688H91C91.2562 81.9688 91.4688 81.7562 91.4688 81.5C91.4688 81.2438 91.2562 81.0312 91 81.0312Z" fill="white"/>
</svg>
